<svg id="GLP_Logo_grey" data-name="GLP Logo_grey" xmlns="http://www.w3.org/2000/svg" width="108.185" height="24" viewBox="0 0 108.185 24">
  <g id="Group_371" data-name="Group 371" transform="translate(0)">
    <path id="Path_2929" data-name="Path 2929" d="M529.381,109.978a14.931,14.931,0,0,1,25.855,0h1.181a15.015,15.015,0,0,0-28.218,0Z" transform="translate(-455.637 -86.348)" fill="#006647"/>
    <path id="Path_2930" data-name="Path 2930" d="M416.154,76.422a23.879,23.879,0,0,1,41.406,0h1.154a23.3,23.3,0,0,0-43.714,0Z" transform="translate(-357.988 -52.792)" fill="#00953a"/>
    <path id="Path_2931" data-name="Path 2931" d="M415.964,25.872a24.8,24.8,0,0,1,48.687,0h1.264C464.307,12.752,453.468,2.6,440.307,2.6s-24,10.152-25.607,23.286h1.264Z" transform="translate(-357.729 -2.243)" fill="#82bc00"/>
    <path id="Path_2932" data-name="Path 2932" d="M486.9,38.207c2.665-10.482,10.262-18.079,19.521-18.079s16.884,7.6,19.535,18.079h1.209C525.457,26.1,516.83,16.9,506.43,16.9S487.39,26.1,485.7,38.207Z" transform="translate(-418.975 -14.578)" fill="#006647"/>
    <path id="Path_2933" data-name="Path 2933" d="M10.317,15.263h4.7a5.123,5.123,0,0,1-1.305,3.476A4.354,4.354,0,0,1,10.4,20.112c-3.476,0-5.33-2.748-5.33-8.408,0-2.665.495-4.657,1.484-5.921A4.807,4.807,0,0,1,10.468,3.9a4.2,4.2,0,0,1,4.286,3.091l.082.206L18.78,6.031,18.7,5.8a9.061,9.061,0,0,0-2.514-3.75A8.408,8.408,0,0,0,10.372,0,9.466,9.466,0,0,0,2.61,3.517,13.81,13.81,0,0,0,0,12.007a15.024,15.024,0,0,0,2.335,8.339A8.694,8.694,0,0,0,9.891,24c2.693,0,4.685-1.017,5.633-2.322l.275,1.978h3.558V11.5H10.317Z" transform="translate(0)" fill="#555759"/>
  </g>
  <path id="Path_2934" data-name="Path 2934" d="M168.8,2.5h4.794V21.582h9.74l-.563,4.218H168.8Z" transform="translate(-145.611 -2.157)" fill="#555759"/>
  <g id="Group_372" data-name="Group 372" transform="translate(40.719 0.343)">
    <path id="Path_2935" data-name="Path 2935" d="M301.277,6.388h3.489a4.31,4.31,0,0,1,3.173.92,3.189,3.189,0,0,1,.866,2.253,3.032,3.032,0,0,1-.92,2.322,3.9,3.9,0,0,1-2.748.865h-3.847V6.388Zm10.3-1.8C310.262,3.2,308.2,2.5,305.494,2.5H296.4V25.8h4.877V16.76h4.685a7.723,7.723,0,0,0,5.454-2.006,6.856,6.856,0,0,0,2.157-5.234,6.847,6.847,0,0,0-1.992-4.932" transform="translate(-296.4 -2.5)" fill="#555759"/>
  </g>
</svg>
