<?xml version="1.0" encoding="UTF-8"?>
<svg id="Layer_1" xmlns="http://www.w3.org/2000/svg" version="1.1" viewBox="0 0 211.3 47">
  <!-- Generator: Adobe Illustrator 29.2.1, SVG Export Plug-In . SVG Version: 2.1.0 Build 116)  -->
  <defs>
    <style>
      .st0 {
        fill: #dc1f27;
      }

      .st1 {
        fill: #fff;
      }
    </style>
  </defs>
  <rect class="st0" x="204.1" y=".3" width="7.2" height="7.2"/>
  <g>
    <path class="st1" d="M204.1,14.9v9.9h-61.5v-15.3h-24.3v22.5h17.1v15h7.2v-15h68.7V14.9h-7.2ZM135.5,24.9h-9.9v-8.1h9.9v8.1Z"/>
    <rect class="st1" x="0" y=".3" width="7.2" height="7.2"/>
    <rect class="st1" x="104.3" y="39.8" width="7.2" height="7.2"/>
    <polygon class="st1" points="104.3 24.9 60 24.9 60 .3 52.8 .3 52.8 24.9 7.2 24.9 7.2 14.4 0 14.4 0 24.9 0 24.9 0 32.1 0 32.1 0 46.9 7.2 46.9 7.2 32.1 111.5 32.1 111.5 9.6 104.3 9.6 104.3 24.9"/>
  </g>
</svg>
